HIERARCHY
ROOT Hips
{
    OFFSET   0.000000   0.000000   0.000000
    CHANNELS 6 Xposition Yposition Zposition Zrotation Xrotation Yrotation
    JOINT Chest
    {
        OFFSET   0.000000   8.007230   0.000000
        CHANNELS 3 Zrotation Xrotation Yrotation
        JOINT Chest2
        {
            OFFSET   0.000000  22.077100   0.000000
            CHANNELS 3 Zrotation Xrotation Yrotation
            JOINT Neck
            {
                OFFSET   0.000000  23.255100   0.000000
                CHANNELS 3 Zrotation Xrotation Yrotation
                JOINT Head
                {
                    OFFSET   0.000000  14.370100   1.956600
                    CHANNELS 3 Zrotation Xrotation Yrotation
                    End Site
                    {
                        OFFSET   0.000000  19.566000   0.000000
                    }
                }
            }
            JOINT LeftCollar
            {
                OFFSET   3.911900  19.017000  -0.467063
                CHANNELS 3 Zrotation Xrotation Yrotation
                JOINT LeftShoulder
                {
                    OFFSET  10.383700   0.000000   0.000000
                    CHANNELS 3 Zrotation Xrotation Yrotation
                    JOINT LeftElbow
                    {
                        OFFSET  26.662100   0.001193   0.000980
                        CHANNELS 3 Zrotation Xrotation Yrotation
                        JOINT LeftWrist
                        {
                            OFFSET  28.869000  -0.000059  -0.000082
                            CHANNELS 3 Zrotation Xrotation Yrotation
                            JOINT LeftFinger0
                            {
                                OFFSET   2.044650  -2.323450   3.252850
                                CHANNELS 3 Zrotation Xrotation Yrotation
                                JOINT LeftFinger01
                                {
                                    OFFSET   3.088130   0.000000   0.000000
                                    CHANNELS 3 Zrotation Xrotation Yrotation
                                    JOINT LeftFinger02
                                    {
                                        OFFSET   2.639460   0.000000   0.000000
                                        CHANNELS 3 Zrotation Xrotation Yrotation
                                        End Site
                                        {
                                            OFFSET   2.582190   0.000000   0.000000
                                        }
                                    }
                                }
                            }
                            JOINT LeftFinger1
                            {
                                OFFSET   8.364480   0.000000   3.252850
                                CHANNELS 3 Zrotation Xrotation Yrotation
                                JOINT LeftFinger11
                                {
                                    OFFSET   4.646930   0.000000   0.000000
                                    CHANNELS 3 Zrotation Xrotation Yrotation
                                    JOINT LeftFinger12
                                    {
                                        OFFSET   2.323470   0.000000   0.000000
                                        CHANNELS 3 Zrotation Xrotation Yrotation
                                        End Site
                                        {
                                            OFFSET   2.273050   0.000000   0.000000
                                        }
                                    }
                                }
                            }
                            JOINT LeftFinger2
                            {
                                OFFSET   8.364490   0.000016   1.078090
                                CHANNELS 3 Zrotation Xrotation Yrotation
                                JOINT LeftFinger21
                                {
                                    OFFSET   5.111610   0.000000   0.000000
                                    CHANNELS 3 Zrotation Xrotation Yrotation
                                    JOINT LeftFinger22
                                    {
                                        OFFSET   2.788150   0.000016   0.000000
                                        CHANNELS 3 Zrotation Xrotation Yrotation
                                        End Site
                                        {
                                            OFFSET   2.727660   0.000000   0.000000
                                        }
                                    }
                                }
                            }
                            JOINT LeftFinger3
                            {
                                OFFSET   7.899780   0.000015  -1.078090
                                CHANNELS 3 Zrotation Xrotation Yrotation
                                JOINT LeftFinger31
                                {
                                    OFFSET   4.646930   0.000000   0.000000
                                    CHANNELS 3 Zrotation Xrotation Yrotation
                                    JOINT LeftFinger32
                                    {
                                        OFFSET   2.323470   0.000000   0.000000
                                        CHANNELS 3 Zrotation Xrotation Yrotation
                                        End Site
                                        {
                                            OFFSET   2.273050   0.000000   0.000000
                                        }
                                    }
                                }
                            }
                            JOINT LeftFinger4
                            {
                                OFFSET   7.435090   0.000000  -3.252850
                                CHANNELS 3 Zrotation Xrotation Yrotation
                                JOINT LeftFinger41
                                {
                                    OFFSET   3.717550   0.000000   0.000000
                                    CHANNELS 3 Zrotation Xrotation Yrotation
                                    JOINT LeftFinger42
                                    {
                                        OFFSET   1.858770   0.000000   0.000000
                                        CHANNELS 3 Zrotation Xrotation Yrotation
                                        End Site
                                        {
                                            OFFSET   1.818440   0.000000   0.000000
                                        }
                                    }
                                }
                            }
                        }
                    }
                }
            }
            JOINT RightCollar
            {
                OFFSET  -3.911910  19.017000  -0.467062
                CHANNELS 3 Zrotation Xrotation Yrotation
                JOINT RightShoulder
                {
                    OFFSET -10.383700   0.000014   0.000000
                    CHANNELS 3 Zrotation Xrotation Yrotation
                    JOINT RightElbow
                    {
                        OFFSET -26.662100   0.001225   0.001091
                        CHANNELS 3 Zrotation Xrotation Yrotation
                        JOINT RightWrist
                        {
                            OFFSET -28.869000  -0.000020  -0.000085
                            CHANNELS 3 Zrotation Xrotation Yrotation
                            JOINT RightFinger0
                            {
                                OFFSET  -2.044650  -2.323490   3.252850
                                CHANNELS 3 Zrotation Xrotation Yrotation
                                JOINT RightFinger01
                                {
                                    OFFSET  -3.088130   0.000000   0.000000
                                    CHANNELS 3 Zrotation Xrotation Yrotation
                                    JOINT RightFinger02
                                    {
                                        OFFSET  -2.639460   0.000000   0.000000
                                        CHANNELS 3 Zrotation Xrotation Yrotation
                                        End Site
                                        {
                                            OFFSET  -2.582190   0.000000   0.000000
                                        }
                                    }
                                }
                            }
                            JOINT RightFinger1
                            {
                                OFFSET  -8.364480   0.000000   3.252850
                                CHANNELS 3 Zrotation Xrotation Yrotation
                                JOINT RightFinger11
                                {
                                    OFFSET  -4.646930   0.000000   0.000000
                                    CHANNELS 3 Zrotation Xrotation Yrotation
                                    JOINT RightFinger12
                                    {
                                        OFFSET  -2.323470   0.000000   0.000000
                                        CHANNELS 3 Zrotation Xrotation Yrotation
                                        End Site
                                        {
                                            OFFSET  -2.273050   0.000000   0.000000
                                        }
                                    }
                                }
                            }
                            JOINT RightFinger2
                            {
                                OFFSET  -8.364480   0.000000   1.078090
                                CHANNELS 3 Zrotation Xrotation Yrotation
                                JOINT RightFinger21
                                {
                                    OFFSET  -5.111620   0.000000   0.000000
                                    CHANNELS 3 Zrotation Xrotation Yrotation
                                    JOINT RightFinger22
                                    {
                                        OFFSET  -2.788160   0.000000   0.000000
                                        CHANNELS 3 Zrotation Xrotation Yrotation
                                        End Site
                                        {
                                            OFFSET  -2.727660   0.000000   0.000000
                                        }
                                    }
                                }
                            }
                            JOINT RightFinger3
                            {
                                OFFSET  -7.899780   0.000000  -1.078090
                                CHANNELS 3 Zrotation Xrotation Yrotation
                                JOINT RightFinger31
                                {
                                    OFFSET  -4.646930   0.000000   0.000000
                                    CHANNELS 3 Zrotation Xrotation Yrotation
                                    JOINT RightFinger32
                                    {
                                        OFFSET  -2.323470   0.000000   0.000000
                                        CHANNELS 3 Zrotation Xrotation Yrotation
                                        End Site
                                        {
                                            OFFSET  -2.273050   0.000000   0.000000
                                        }
                                    }
                                }
                            }
                            JOINT RightFinger4
                            {
                                OFFSET  -7.435090   0.000000  -3.252850
                                CHANNELS 3 Zrotation Xrotation Yrotation
                                JOINT RightFinger41
                                {
                                    OFFSET  -3.717550   0.000000   0.000000
                                    CHANNELS 3 Zrotation Xrotation Yrotation
                                    JOINT RightFinger42
                                    {
                                        OFFSET  -1.858760   0.000000   0.000000
                                        CHANNELS 3 Zrotation Xrotation Yrotation
                                        End Site
                                        {
                                            OFFSET  -1.818440   0.000000   0.000000
                                        }
                                    }
                                }
                            }
                        }
                    }
                }
            }
        }
    }
    JOINT LeftHip
    {
        OFFSET   9.783030   0.000000   0.000000
        CHANNELS 3 Zrotation Xrotation Yrotation
        JOINT LeftKnee
        {
            OFFSET   0.000063 -41.789100   0.000608
            CHANNELS 3 Zrotation Xrotation Yrotation
            JOINT LeftAnkle
            {
                OFFSET   0.000048 -41.133200  -0.000184
                CHANNELS 3 Zrotation Xrotation Yrotation
                JOINT LeftToe
                {
                    OFFSET   0.000000  -6.358960  14.674500
                    CHANNELS 3 Zrotation Xrotation Yrotation
                    End Site
                    {
                        OFFSET   0.000000   0.000000   3.913200
                    }
                }
            }
        }
    }
    JOINT RightHip
    {
        OFFSET  -9.783030   0.000000   0.000000
        CHANNELS 3 Zrotation Xrotation Yrotation
        JOINT RightKnee
        {
            OFFSET   0.000071 -41.789100   0.001239
            CHANNELS 3 Zrotation Xrotation Yrotation
            JOINT RightAnkle
            {
                OFFSET   0.000037 -41.133200  -0.000166
                CHANNELS 3 Zrotation Xrotation Yrotation
                JOINT RightToe
                {
                    OFFSET   0.000000  -6.358960  14.674500
                    CHANNELS 3 Zrotation Xrotation Yrotation
                    End Site
                    {
                        OFFSET   0.000000   0.000000   3.913200
                    }
                }
            }
        }
    }
}
MOTION
Frames: 5
Frame Time:   0.016667
  0.653066  89.517600   0.407125  -4.278110  -9.652540  -7.144200   1.708540   6.096730   0.805186   3.359080  12.214400   1.438340   2.148490  -1.502330   0.051745   3.536450  -3.033620  -5.759600  -5.681260  -2.033260   0.548028 -70.741900  15.947900 -13.598700   4.683750 -14.391800 -99.771800 -64.274800 -69.115700 -65.866100  43.087100  30.459300 -68.720500  12.362600  -0.003715   0.000901  11.181300  -0.001934  -0.000136 -88.996300   5.006220  -0.086217 -76.372300   0.000873  -0.010603 -57.279300   0.005961  -0.005461 -89.000000   0.002754   0.001427 -89.875300   0.000097   0.012990 -67.406600  -0.008941   0.003948 -78.986800  -4.940090   0.958066 -79.028300  -0.010346  -0.030406 -59.271200   0.015488  -0.018440 -24.210900 -11.383600  23.697200 -39.901700  -0.008212   0.003325 -26.574500  -0.005878   0.002954  12.088200  -0.672197   9.386040  61.932000   8.882690  11.307400 -13.920700 -32.536000  97.140600  75.984700 -54.433100  69.419200 -48.550600  25.752600  49.769200  -9.130530  -0.027091  -0.004334  -9.565290  -0.016885   0.021504  88.996100   5.001780   0.088075  78.288800  -0.000867   0.008678  58.716600   0.005243   0.003842  85.928600  -0.009022   0.000406  85.928600   0.000000   0.008948  64.446500   0.006087   0.001099  80.725200  -4.938970  -0.804651  80.760000   0.000171   0.003707  60.570000   0.002613   0.000987  25.895900  -5.904860 -12.004500  39.756600  -0.002946   0.001617  26.477900  -0.000474   0.003432   1.989630  13.257500   5.351000   0.721387   0.227858   8.177840  -0.879166  -5.078200   3.349070   0.000000   0.000000   0.000000   3.581100  11.906900  -4.526290  -0.181653   1.234350  -2.733900  -1.411030  -3.673000   2.685850  -0.000000   0.000000   0.000000
  0.645788  89.517300   0.403121  -4.273680  -9.631460  -7.142910   1.697330   6.080110   0.812258   3.335640  12.181300   1.454790   2.122380  -1.493720   0.051708   3.493710  -3.016450  -5.729080  -5.734010  -1.987290   0.539600 -71.036000  15.439300 -13.528800   5.493520 -14.450800 -99.752200 -54.533800 -67.679500 -56.237600  45.276900  32.851400 -70.812200  12.448300  -0.006819   0.001583  11.224200  -0.003697  -0.000692 -88.996300   5.006310  -0.086217 -76.124200   0.000920   0.008598 -57.093200  -0.004857   0.004370 -89.000000   0.002903   0.001580 -90.225500  -0.005416   0.057263 -67.669200  -0.041466   0.011531 -78.049400  -4.911540   1.036150 -78.094000  -0.004834  -0.015267 -58.570600   0.007951  -0.009044 -24.113300 -11.376200  23.752000 -39.768300   0.008688  -0.003513 -26.485600   0.006228   0.002740  12.123700  -0.561738   9.408760  62.276000   8.481250  11.274700 -14.379200 -32.550100  97.162000  72.884800 -55.149000  66.543100 -51.125800  29.204900  53.152500  -7.914590  -0.027002  -0.003765  -8.957320  -0.016816   0.021801  88.996100   5.001740   0.088074  77.513900  -0.000621   0.001487  58.135400   0.000732   0.003807  85.019600  -0.000999  -0.000374  85.024400   0.000292   0.000877  63.768200   0.000466   0.001349  80.396100  -4.917490  -0.838275  80.431800   0.000428  -0.014326  60.323800  -0.009015  -0.005430  25.400900  -6.331340 -13.103200  39.090700  -0.001041   0.001525  26.034400  -0.002166   0.003366   1.996720  13.216400   5.334680   0.727330   0.271089   8.183570  -0.886943  -5.096620   3.353460  -0.000000   0.000000   0.000000   3.583470  11.889200  -4.530300  -0.172731   1.231740  -2.740950  -1.417350  -3.674600   2.693180  -0.000000   0.000000   0.000000
  0.635827  89.517300   0.393779  -4.268680  -9.617920  -7.142240   1.685190   6.062550   0.814080   3.311200  12.146100   1.459760   2.096220  -1.464210   0.051447   3.450020  -2.957270  -5.660430  -5.794380  -1.956080   0.531178 -71.229200  14.982900 -13.493900   6.617600 -14.746400 -99.583900 -42.671000 -64.956200 -44.532000  46.820900  34.346300 -72.081400  12.534100  -0.012551   0.002834  11.267100  -0.006961  -0.002970 -88.996300   5.006390  -0.086216 -76.022900   0.000954   0.035020 -57.017200  -0.019787   0.017840 -89.000000   0.003055   0.001731 -91.046400  -0.011688   0.099078 -68.284800  -0.072718   0.017493 -77.336000  -4.870270   1.093450 -77.382500   0.003334   0.008017 -58.036900  -0.003692   0.005337 -24.032200 -11.356700  23.758200 -39.706000   0.033824  -0.013572 -26.444200   0.024192   0.002537  12.162300  -0.465126   9.427290  62.579300   8.225630  11.264400 -14.837600 -32.564200  97.183400  65.979400 -55.724000  60.156500 -52.546800  30.808700  55.095800  -5.966010  -0.026381  -0.002643  -7.983040  -0.016333   0.021843  88.996100   5.001700   0.088073  77.159600  -0.000544  -0.009446  57.869600  -0.006300   0.003735  84.606600   0.011095  -0.001880  84.606700   0.000383  -0.011322  63.454900  -0.008178   0.001422  80.349400  -4.896040  -0.843055  80.384900   0.000508  -0.034178  60.288600  -0.022735  -0.011848  25.141100  -6.758520 -14.078900  38.946600   0.002354   0.001449  25.938400  -0.002658   0.003260   2.001300  13.184900   5.326670   0.733286   0.314323   8.185270  -0.892534  -5.115070   3.354460  -0.000000   0.000000   0.000000   3.589390  11.875500  -4.530690  -0.168587   1.231350  -2.753080  -1.423620  -3.677840   2.696200   0.000000   0.000000  -0.000000
  0.618985  89.520800   0.379425  -4.263950  -9.613180  -7.142210   1.670030   6.044450   0.812471   3.281020  12.109800   1.458120   2.074790  -1.405520   0.049865   3.414330  -2.839150  -5.564020  -5.841850  -1.956830   0.532573 -71.254700  14.798100 -13.547900   8.342460 -15.451800 -99.066000 -31.643400 -61.115800 -34.024700  47.300700  34.759800 -72.627600  12.512100  -0.019959   0.004428  11.256100  -0.011204  -0.009230 -88.996300   5.006470  -0.086198 -76.265000   0.000966   0.044696 -57.198700  -0.025415   0.022561 -89.000000   0.003201   0.001890 -92.269600  -0.012574   0.098582 -69.202100  -0.072422   0.017178 -77.133800  -4.847740   1.108090 -77.180500   0.008448   0.025458 -57.885300  -0.012582   0.015885 -24.236200 -11.146800  23.303300 -39.780900   0.049867  -0.019620 -26.494100   0.035522   0.002352  12.199800  -0.407416   9.440050  62.739500   8.231690  11.342700 -16.310800 -32.926400  96.198300  57.189100 -54.611700  51.777700 -52.456200  30.695800  55.062400  -4.462240  -0.013677  -0.000998  -7.231150  -0.007848   0.011657  88.996100   5.001670   0.088071  77.173800  -0.000410  -0.017223  57.880200  -0.011868   0.003652  84.628700   0.019351  -0.004001  84.628800   0.000550  -0.019758  63.471500  -0.014645   0.001543  80.836700  -4.899700  -0.802936  80.870400   0.000642  -0.036301  60.652800  -0.025175  -0.011676  25.035700  -7.078590 -14.741800  38.966500   0.006408   0.001396  25.951700  -0.003542   0.003184   2.004930  13.192000   5.327810   0.731280   0.296219   8.184130  -0.893721  -5.106180   3.354250  -0.000000   0.000000   0.000000   3.598290  11.870700  -4.521000  -0.168727   1.234390  -2.766300  -1.430590  -3.681870   2.696160   0.000000   0.000000   0.000000
  0.600519  89.527100   0.364414  -4.259860  -9.611240  -7.142420   1.654680   6.030450   0.808962   3.250370  12.081300   1.453570   2.055100  -1.335190   0.047918   3.381280  -2.697480  -5.454600  -5.866140  -1.962050   0.538385 -71.228400  14.761100 -13.611300  10.350500 -16.246600 -98.459000 -23.244700 -56.557500 -26.035800  47.370100  34.818200 -72.706800  12.358100  -0.024738   0.005453  11.179100  -0.013946  -0.013911 -88.996300   5.006550  -0.086172 -76.757900   0.000970   0.047153 -57.568400  -0.026931   0.023645 -89.000000   0.003344   0.002052 -93.641000  -0.012700   0.095107 -70.230700  -0.070354   0.014971 -77.105000  -4.837960   1.110170 -77.151700   0.010906   0.034754 -57.863700  -0.017364   0.021447 -24.555700 -10.956300  22.546000 -40.185500   0.057673  -0.022446 -26.763600   0.040994   0.002177  12.220800  -0.385531   9.450160  62.789100   8.286250  11.458300 -17.801300 -33.235500  95.185400  49.199600 -52.438900  43.919200 -51.685800  30.077900  54.557500  -3.269370   0.000591   0.000094  -6.634690   0.000224   0.001111  88.996100   5.001630   0.088068  77.272900  -0.000293  -0.021259  57.954700  -0.014917   0.003554  84.783200   0.023537  -0.005397  84.783200   0.000694  -0.024068  63.587400  -0.018089   0.001632  81.693900  -4.911980  -0.730481  81.724600   0.000763  -0.036604  61.293400  -0.025524  -0.010472  25.101600  -7.233540 -15.026600  39.106000   0.008973   0.001356  26.044600  -0.003987   0.003113   2.012830  13.199100   5.328960   0.725867   0.278115   8.182330  -0.894924  -5.097290   3.353870  -0.000000   0.000000   0.000000   3.606940  11.869300  -4.511370  -0.168974   1.237430  -2.774450  -1.437320  -3.685860   2.695960   0.000000   0.000000   0.000000
